<?xml version="1.0" encoding="utf-8"?>
<!-- Generator: Adobe Illustrator 25.4.1, SVG Export Plug-In . SVG Version: 6.00 Build 0)  -->
<svg version="1.1" xmlns="http://www.w3.org/2000/svg" xmlns:xlink="http://www.w3.org/1999/xlink" x="0px" y="0px"
	 viewBox="0 0 360.4 261.4" style="enable-background:new 0 0 360.4 261.4;" xml:space="preserve">
<style type="text/css">
	.st0{display:none;}
	.st1{display:inline;fill:#004550;stroke:#1D1D1B;stroke-width:1.8305;stroke-miterlimit:10;}
	.st2{fill:url(#SVGID_1_);}
	.st3{fill:url(#SVGID_00000078749299658645412640000002602207583821675148_);}
	.st4{fill:#FFFFFF;stroke:url(#SVGID_00000094601210365035069170000004551773697785858949_);stroke-width:8;stroke-miterlimit:10;}
	.st5{fill:#00B336;}
	.st6{fill:#FFFFFF;}
	.st7{fill:url(#SVGID_00000022546368824722120920000003999560334814860163_);}
	.st8{fill:#6D6E71;}
	.st9{fill:url(#SVGID_00000073715254883898253460000002636344157416478117_);}
	.st10{fill:url(#SVGID_00000127731661595891245920000012548506354112722338_);}
	
		.st11{fill:#FFFFFF;stroke:url(#SVGID_00000027604835749416824870000004483966016017091770_);stroke-width:10;stroke-miterlimit:10;}
	.st12{fill:#712E03;}
	.st13{fill:url(#SVGID_00000163785253959558078050000011200128203353068214_);}
	.st14{fill:url(#SVGID_00000149374503979199195970000009799577071927384764_);}
	
		.st15{fill:#FFFFFF;stroke:url(#SVGID_00000135664454563556091730000002977477365179043987_);stroke-width:10;stroke-miterlimit:10;}
	.st16{fill:#3F3F3F;}
	.st17{fill:url(#SVGID_00000156576389313325878330000001590689684169133232_);}
	.st18{fill:url(#SVGID_00000126290450908724589510000009008862677058933385_);}
	
		.st19{fill:#FFFFFF;stroke:url(#SVGID_00000047050649552016941190000014092286804809071290_);stroke-width:10;stroke-miterlimit:10;}
	.st20{fill:url(#SVGID_00000060015673747881423450000004205899593055024303_);}
	.st21{fill:url(#SVGID_00000054950611635684854420000006219707055014711968_);}
	.st22{fill:#FFFFFF;stroke:url(#SVGID_00000131334784146661654970000005335317813216181159_);stroke-width:8;stroke-miterlimit:10;}
	.st23{fill:url(#SVGID_00000108310172267913450890000016247474868254004651_);}
	.st24{fill:url(#SVGID_00000087380205443633492460000006428979624353733278_);}
	.st25{fill:url(#SVGID_00000164480567794340104360000004595725745269324982_);}
	.st26{fill:#FFFFFF;stroke:url(#SVGID_00000003080349110051483490000004471413205057606042_);stroke-width:8;stroke-miterlimit:10;}
	.st27{fill:url(#SVGID_00000098181284905577313050000006010596677821037712_);}
	.st28{fill:url(#SVGID_00000065766234123056428560000017439390703961875074_);}
	
		.st29{fill:#FFFFFF;stroke:url(#SVGID_00000035515351269543517990000012560677216677311373_);stroke-width:10;stroke-miterlimit:10;}
	.st30{fill:url(#SVGID_00000160182001444440729860000013943501379558918291_);}
	.st31{fill:url(#SVGID_00000183231412090004227400000003814440931827252406_);}
	.st32{fill:url(#SVGID_00000182505680433798763740000017957529454577840055_);}
	.st33{fill:url(#SVGID_00000107577810792868509890000006075231671503313826_);}
	.st34{fill:url(#SVGID_00000029747506125237520670000018398867561605623459_);}
	
		.st35{fill:#FFFFFF;stroke:url(#SVGID_00000160879225062406871550000008125798619682999459_);stroke-width:10;stroke-miterlimit:10;}
	.st36{fill:url(#SVGID_00000011715355717672150020000007839430790816644245_);}
	.st37{fill:url(#SVGID_00000034774075765238359630000018248720957396634795_);}
	.st38{fill:#FFFFFF;stroke:url(#SVGID_00000045582023995313725070000007899981363454247309_);stroke-width:8;stroke-miterlimit:10;}
	.st39{fill:none;stroke:#FFFFFF;stroke-width:8;stroke-miterlimit:10;}
	.st40{fill:url(#SVGID_00000152255705579436070910000006767212021758985352_);}
	.st41{fill:url(#SVGID_00000081644487690381351580000008765164290834779286_);}
	.st42{fill:url(#SVGID_00000127743629061199293110000000129799342497324677_);}
	.st43{fill:url(#SVGID_00000037686678962284975570000003922387095004503202_);}
	.st44{fill:url(#SVGID_00000177477803605484662910000014476289925086458264_);}
	.st45{fill:url(#SVGID_00000087413451472525326360000004404006789328876193_);}
	.st46{fill:url(#SVGID_00000102520809372264619040000003505601747553321088_);}
	.st47{fill:url(#SVGID_00000173880254143127617950000015927342690879552155_);}
	.st48{fill:url(#SVGID_00000014623983699360868030000004865844445944667318_);}
	.st49{fill:url(#SVGID_00000135677173115872208500000013015946706306156171_);}
	.st50{fill:url(#SVGID_00000181768193592527101320000008277292571885824187_);}
	.st51{fill:url(#SVGID_00000131329782824881656010000012051811619324557189_);}
	.st52{fill:url(#SVGID_00000006705723622968884570000012173611323686281610_);}
	.st53{fill:url(#SVGID_00000009570323628212683030000012745828722993734571_);}
	.st54{fill:url(#SVGID_00000014622970450316904390000011154247903129386678_);}
	.st55{fill:url(#SVGID_00000109720122934387937510000002943333905003822470_);}
	.st56{fill:url(#SVGID_00000151545042621245434510000010318729781242337454_);}
	.st57{fill:url(#SVGID_00000151521693770513077460000005955079185337994916_);}
	.st58{fill:url(#SVGID_00000029754124730335465370000017050872611818713733_);}
	.st59{fill:url(#SVGID_00000118388253216657180730000011443095051960309642_);}
	.st60{fill:url(#SVGID_00000109742987272980336140000012109733595569923247_);}
	.st61{fill:url(#SVGID_00000170997655516969251590000010850087452939845298_);}
	.st62{fill:url(#SVGID_00000159460133728442938800000006705893000761962889_);}
	.st63{fill:url(#SVGID_00000121986610880883086330000007320649389052713895_);}
	.st64{fill:url(#SVGID_00000121967215249685819780000000388878751932765110_);}
	.st65{fill:url(#SVGID_00000065768402255828780880000017655901227597928344_);}
	.st66{fill:url(#SVGID_00000019646158100082243720000006853641581558124201_);}
	.st67{fill:url(#SVGID_00000036934103311158320620000002829260102670358156_);}
	.st68{fill:url(#SVGID_00000091738040459055645050000003479400141301811385_);}
	.st69{fill:url(#SVGID_00000173868356932075742350000014773926584935878839_);}
	.st70{fill:url(#SVGID_00000098912333064510957830000017100864148813238170_);}
	.st71{fill:url(#SVGID_00000077287966778281605300000008495426479951662491_);}
	.st72{fill:url(#SVGID_00000046325610014125106910000017031921344233759144_);}
	.st73{fill:url(#SVGID_00000152257774811958864950000009630451958493827753_);}
	.st74{fill:url(#SVGID_00000050623376332047231740000008248823328329912752_);}
	.st75{fill:url(#SVGID_00000163049883165162037390000010392540305568004533_);}
	.st76{fill:url(#SVGID_00000160191791719667634800000011935074927037203587_);}
	.st77{fill:url(#SVGID_00000173129467406659137290000013055288507653858235_);}
	.st78{fill:url(#SVGID_00000143587069988642103700000005759966180539165073_);}
	.st79{fill:url(#SVGID_00000018210572055311814020000009656425114098239370_);}
	.st80{fill:url(#SVGID_00000039830652036408513240000006093457263701863587_);}
	.st81{fill:url(#SVGID_00000177443363140942628220000004943181778046476175_);}
	.st82{fill:url(#SVGID_00000054973795389597377090000015001910766493727124_);}
	.st83{fill:url(#SVGID_00000149373939834000493440000009875941582048610998_);}
</style>
<g id="Layer_2" class="st0">
	<rect x="-5677.8" y="-554.4" class="st1" width="7764.5" height="914.7"/>
</g>
<g id="Layer_1">
	<g>
		<path class="st6" d="M126.8,261.4L53,187.7v-29.7L9.1,114C3.4,109.2,0,102,0,94.5V25.4C0,11.4,11.4,0,25.4,0h216
			c14,0,25.4,11.4,25.4,25.4v0.4h19.7l73.8,73.7v161.8H126.8z"/>
		
			<linearGradient id="SVGID_1_" gradientUnits="userSpaceOnUse" x1="-2814.7153" y1="-444.251" x2="-2813.7153" y2="-444.251" gradientTransform="matrix(-1.396722e-14 54.0729 -54.0729 -1.396722e-14 -23977.5352 152293.7969)">
			<stop  offset="0" style="stop-color:#0066BD"/>
			<stop  offset="1.239918e-03" style="stop-color:#0066BD"/>
			<stop  offset="0.1299" style="stop-color:#037AB4"/>
			<stop  offset="0.391" style="stop-color:#0CAC9D"/>
			<stop  offset="0.6438" style="stop-color:#15E385"/>
			<stop  offset="0.6975" style="stop-color:#20E47C"/>
			<stop  offset="0.793" style="stop-color:#3FE564"/>
			<stop  offset="0.9181" style="stop-color:#6FE83D"/>
			<stop  offset="1" style="stop-color:#93EA20"/>
		</linearGradient>
		<path class="st2" d="M71.4,144V98c0-2.2-1.8-4-4-4h-46c-3.6,0-5.4,4.3-2.8,6.9l46,46C67.1,149.4,71.4,147.6,71.4,144z"/>
		<polygon class="st6" points="280,41.8 69,41.8 69,120.2 69,181 133.4,245.4 344.4,245.4 344.4,194 344.4,120.2 344.4,106.2 		"/>
		
			<linearGradient id="SVGID_00000055670169104588832080000000960858472223321005_" gradientUnits="userSpaceOnUse" x1="-2814.7153" y1="-444.251" x2="-2813.7153" y2="-444.251" gradientTransform="matrix(-129.0618 223.5416 223.5416 129.0618 -263692.4062 686573.5625)">
			<stop  offset="0" style="stop-color:#00E296"/>
			<stop  offset="0.5079" style="stop-color:#4AE65B"/>
			<stop  offset="0.9986" style="stop-color:#93EA20"/>
			<stop  offset="1" style="stop-color:#93EA20"/>
		</linearGradient>
		<polygon style="fill:url(#SVGID_00000055670169104588832080000000960858472223321005_);" points="280,41.8 280,37.8 65,37.8 
			65,120.2 65,182.7 131.8,249.4 348.4,249.4 348.4,194 348.4,120.2 348.4,104.5 281.6,37.8 280,37.8 280,41.8 277.1,44.7 
			340.4,107.9 340.4,120.2 340.4,194 340.4,241.4 135.1,241.4 73,179.4 73,120.2 73,45.8 280,45.8 280,41.8 277.1,44.7 		"/>
		<path class="st5" d="M241.4,104h-216c-5.2,0-9.4-4.2-9.4-9.4V25.4c0-5.2,4.2-9.4,9.4-9.4h216c5.2,0,9.4,4.2,9.4,9.4v69.1
			C250.9,99.7,246.6,104,241.4,104z"/>
		<path class="st6" d="M70.5,42.8c-1.6-0.9-3.6-0.2-4.4,1.5L54.3,69.7c-0.3,0.5-0.5,0.9-1.1,0.9s-0.9-0.4-1.1-0.9L40.2,44.3
			c-0.8-1.7-2.8-2.4-4.4-1.5c-1.6,0.9-2.2,2.9-1.4,4.6l11.5,23.5l1.3,2.7c1.1,2.3,3.4,3.8,5.9,3.8c2.5,0,4.8-1.5,5.9-3.8l1.3-2.7
			l11.5-23.5C72.7,45.7,72.1,43.7,70.5,42.8z"/>
		<path class="st6" d="M226.9,42.4c-2.2,0-4.2,1.4-5.1,3.3c-3,6.1-11.8,24.3-11.8,24.4c-0.1,0.1-0.3,0.5-0.6,0.5
			c-0.4,0-0.6-0.4-0.6-0.5c-2.9-6-8.7-18-11.7-24.1c-1.2-2.4-3.1-3.5-5.2-3.5h0c-3.2,0-5.9,2.7-5.9,6.5v25c0,1.5,0.9,2.9,2.2,3.4
			c2.2,0.7,4-1.2,4-3.4l-0.5-24.4c0-0.3,0.3-0.3,0.4-0.1l12,24.4c1.1,2.3,3.1,3.7,5.2,3.7c2.1,0,4.1-1.4,5.2-3.7l12-24.3
			c0.1-0.2,0.4-0.1,0.4,0.1L226.6,74c0,1.9,1.4,3.5,3.2,3.4c1.7-0.1,3-1.7,3-3.6c0,0,0-18.7,0-24.9
			C232.8,45.1,230.2,42.4,226.9,42.4z"/>
		<path class="st6" d="M181.9,72.3l-13.3-26.2c-1.1-2.3-3.4-3.8-5.9-3.8c-1.6,0-3,0.6-4.2,1.6c-0.7,0.6-1.3,1.3-1.7,2.2l-13.2,26
			l0,0.1l0,0c-0.6,1.2-0.5,2.6,0.3,3.7l0.1,0.1l0.1,0.1c0.2,0.3,0.5,0.6,0.9,0.8c1.1,0.7,2.4,0.6,3.4-0.1l0,0l0.2-0.2l0.2-0.2
			l0.1-0.1c0.2-0.2,0.4-0.5,0.6-0.8l0.5-1l2.8-5.8c0.1-0.1,0.2-0.2,0.4-0.2h12.2h0c1.6,0,3-1.4,3-3.1c0-1.7-1.3-3.1-3-3.1h-7.3h-1.8
			c-0.2,0-0.3-0.2-0.2-0.4l0.7-1.4l5-10l0,0l0-0.1c0.1-0.2,0.3-0.9,0.8-1c0.3-0.1,0.5-0.1,0.7,0c0.5,0.2,0.7,0.8,0.9,1.2l12.1,25.1
			c0.6,1.2,1.7,1.8,2.9,1.8c0.4,0,0.7-0.1,1.1-0.2l0.1,0c0.1,0,0.2-0.1,0.3-0.1l0.1,0l0.1,0l0.1,0l0.1-0.1l0.1-0.1l0.1-0.1l0.2-0.1
			l0,0C182.3,75.4,182.7,73.7,181.9,72.3z"/>
		<path class="st6" d="M79.4,63.7h22.3c0.4,0,3.9-0.3,3.9-4.2c0-9.6-7.4-17.4-16.6-17.4c-9.1,0-16.6,7.8-16.6,17.4
			c0,0.2,0,0.8,0,0.9c0,11,7,16.9,16.4,17.4c0.4,0,0.9,0,1.3,0c3.6,0,6.6-0.9,9.9-3c0.3-0.2,1.7-1.1,3-2.8c1.1-1.4,1.2-3.4,0-4.5
			c-1.7-1.5-3.4-0.7-4.9,0.6c-2.4,2.1-4.3,3.7-9.1,3.7c-4.5,0-8.8-2.6-9.9-7.8C79.1,63.9,79.2,63.7,79.4,63.7z M79.1,57.3
			c0.6-5,4.1-9.5,9.9-9.5c5.8,0,9.4,4.4,10,9.5c0,0.2-0.1,0.4-0.3,0.4H79.4C79.2,57.6,79.1,57.4,79.1,57.3z"/>
		<path class="st6" d="M116.1,63.7h22.3c0.4,0,3.9-0.3,3.9-4.2c0-9.6-7.4-17.4-16.6-17.4c-9.1,0-16.6,7.8-16.6,17.4
			c0,0.2,0,0.8,0,0.9c0,11,7,16.9,16.4,17.4c0.4,0,0.9,0,1.3,0c3.6,0,6.6-0.9,9.9-3c0.3-0.2,1.7-1.1,3-2.8c1.1-1.4,1.2-3.4,0-4.5
			c-1.7-1.5-3.4-0.7-4.9,0.6c-2.4,2.1-4.3,3.7-9.1,3.7c-4.5,0-8.8-2.6-9.9-7.8C115.8,63.9,115.9,63.7,116.1,63.7z M115.8,57.3
			c0.6-5,4.1-9.5,9.9-9.5c5.8,0,9.4,4.4,10,9.5c0,0.2-0.1,0.4-0.3,0.4h-19.3C115.9,57.6,115.8,57.4,115.8,57.3z"/>
		<path class="st8" d="M110.1,124.1h6.4l7.4,21.5h-6.1l-1.4-4.2h-7.1l-1.3,4.2h-5.4L110.1,124.1z M110.5,137.5h4.7l-2.3-7.1h-0.1
			L110.5,137.5z"/>
		<path class="st8" d="M123.9,137.6v-0.4c0-5.6,3.3-8.5,8.6-8.5c2.3,0,3.6,0.3,4.6,0.8v3.9c-1.1-0.4-2-0.7-3.6-0.7
			c-2.3,0-3.9,1.2-3.9,4v0.5c0,3.1,1.2,4.4,3.9,4.4c1.6,0,2.9-0.4,3.7-0.7v3.7c-0.9,0.6-2.5,1.1-5,1.1
			C126.8,145.9,123.9,143,123.9,137.6z"/>
		<path class="st8" d="M138.4,137.6v-0.4c0-5.6,3.3-8.5,8.6-8.5c2.3,0,3.6,0.3,4.6,0.8v3.9c-1.1-0.4-2-0.7-3.6-0.7
			c-2.3,0-3.9,1.2-3.9,4v0.5c0,3.1,1.2,4.4,3.9,4.4c1.6,0,2.9-0.4,3.7-0.7v3.7c-0.9,0.6-2.5,1.1-5,1.1
			C141.3,145.9,138.4,143,138.4,137.6z"/>
		<path class="st8" d="M153.6,129.1h5.2v2h0.2c0.9-1.3,2.4-2.2,4.1-2.2c0.4,0,0.8,0.1,1,0.2v4.8c-0.3-0.1-0.9-0.2-1.4-0.2
			c-1.5,0-2.7,0.3-3.6,0.7v11.2h-5.4V129.1z"/>
		<path class="st8" d="M164.6,137.5v-0.4c0-5.1,3.2-8.3,8.2-8.3c5.5,0,7.6,3.1,7.6,8.5v1.4h-10.2c0.3,2.6,1.8,3.3,4.6,3.3
			c2,0,3.7-0.5,4.9-1v3.4c-1.2,0.7-3.3,1.5-6.3,1.5C167.5,145.9,164.6,142.9,164.6,137.5z M170.2,135.7h5c0-2.4-0.8-3.3-2.4-3.3
			C171.5,132.4,170.4,133.1,170.2,135.7z"/>
		<path class="st8" d="M181.6,137.8v-0.4c0-6.2,3.1-8.6,7.5-8.6c1.7,0,2.9,0.4,3.4,0.7v-6.8h5.4v22.9h-4.7l-0.4-1.3h-0.2
			c-1.1,1.1-2.6,1.6-4.6,1.6C184.7,145.9,181.6,143.6,181.6,137.8z M192.6,141.2v-8.1c-0.4-0.3-1.2-0.6-2.3-0.6
			c-1.9,0-3.1,1-3.1,4.5v0.5c0,3.5,1.2,4.4,3,4.4C191.3,141.9,192.1,141.5,192.6,141.2z"/>
		<path class="st8" d="M200.7,123.1h5.5v4.2h-5.5V123.1z M200.7,129.1h5.4v16.5h-5.4V129.1z"/>
		<path class="st8" d="M209.9,141.1v-8.2h-2v-3.8h2v-3.9h5.5v3.9h3.3v3.8h-3.3v7.4c0,1.1,0.5,1.5,1.8,1.5c0.6,0,1.2-0.1,1.6-0.2v3.5
			c-0.7,0.3-1.9,0.7-3.6,0.7C211.8,145.8,209.9,144.7,209.9,141.1z"/>
		<path class="st8" d="M219.8,137.5v-0.4c0-5.1,3.2-8.3,8.2-8.3c5.5,0,7.6,3.1,7.6,8.5v1.4h-10.2c0.3,2.6,1.8,3.3,4.6,3.3
			c2,0,3.7-0.5,4.9-1v3.4c-1.2,0.7-3.3,1.5-6.3,1.5C222.7,145.9,219.8,142.9,219.8,137.5z M225.4,135.7h5c0-2.4-0.8-3.3-2.4-3.3
			C226.8,132.4,225.6,133.1,225.4,135.7z"/>
		<path class="st8" d="M236.8,137.8v-0.4c0-6.2,3.1-8.6,7.5-8.6c1.7,0,2.9,0.4,3.4,0.7v-6.8h5.4v22.9h-4.7l-0.4-1.3H248
			c-1.1,1.1-2.6,1.6-4.6,1.6C239.9,145.9,236.8,143.6,236.8,137.8z M247.8,141.2v-8.1c-0.4-0.3-1.2-0.6-2.3-0.6
			c-1.9,0-3.1,1-3.1,4.5v0.5c0,3.5,1.2,4.4,3,4.4C246.5,141.9,247.3,141.5,247.8,141.2z"/>
		<path class="st8" d="M103.3,177.8v-4.4c1.9,0.7,3.9,1.2,6.4,1.2c2.4,0,3.3-0.7,3.3-2c0-1.2-0.6-1.6-2.6-2l-1.6-0.3
			c-3.4-0.7-5.5-2.2-5.5-6.7c0-4.1,2.5-6.7,8-6.7c3.4,0,5.1,0.5,6.4,1.1v4.3c-1.5-0.5-3.3-1-5.8-1c-1.9,0-2.9,0.6-2.9,1.8
			c0,1.1,0.6,1.6,2.5,2l1.6,0.3c3.8,0.7,5.9,2.2,5.9,6.6c0,4.6-2.9,7.1-8.5,7.1C107.3,179,104.8,178.6,103.3,177.8z"/>
		<path class="st8" d="M120.2,170.6v-0.4c0-5.1,3.2-8.3,8.2-8.3c5.5,0,7.6,3.1,7.6,8.5v1.4h-10.2c0.3,2.6,1.8,3.3,4.6,3.3
			c2,0,3.7-0.5,4.9-1v3.4c-1.2,0.7-3.3,1.5-6.3,1.5C123.1,179,120.2,176,120.2,170.6z M125.8,168.7h5c0-2.4-0.8-3.3-2.4-3.3
			C127.2,165.4,126,166.2,125.8,168.7z"/>
		<path class="st8" d="M137.9,162.2h5.2v2h0.2c0.9-1.3,2.4-2.2,4.1-2.2c0.4,0,0.8,0.1,1,0.2v4.8c-0.3-0.1-0.9-0.2-1.4-0.2
			c-1.5,0-2.7,0.3-3.6,0.7v11.2h-5.4V162.2z"/>
		<polygon class="st8" points="149.2,162.2 154.8,162.2 158,172.5 158.2,172.5 161.3,162.2 166.5,162.2 160.7,178.7 155,178.7 		"/>
		<path class="st8" d="M167.9,156.1h5.5v4.2h-5.5V156.1z M167.9,162.2h5.4v16.5h-5.4V162.2z"/>
		<path class="st8" d="M175.4,170.7v-0.4c0-5.6,3.3-8.5,8.6-8.5c2.3,0,3.6,0.3,4.6,0.8v3.9c-1.1-0.4-2-0.7-3.6-0.7
			c-2.3,0-3.9,1.2-3.9,4v0.5c0,3.1,1.2,4.4,3.9,4.4c1.6,0,2.9-0.4,3.7-0.7v3.7c-0.9,0.6-2.5,1.1-5,1.1
			C178.3,179,175.4,176.1,175.4,170.7z"/>
		<path class="st8" d="M189.9,170.6v-0.4c0-5.1,3.2-8.3,8.2-8.3c5.5,0,7.6,3.1,7.6,8.5v1.4h-10.2c0.3,2.6,1.8,3.3,4.6,3.3
			c2,0,3.7-0.5,4.9-1v3.4c-1.2,0.7-3.3,1.5-6.3,1.5C192.7,179,189.9,176,189.9,170.6z M195.4,168.7h5c0-2.4-0.8-3.3-2.4-3.3
			C196.8,165.4,195.6,166.2,195.4,168.7z"/>
		<path class="st8" d="M213,157.2h8.9c5.7,0,8.5,2.5,8.5,7c0,4.9-2.9,7.4-8.3,7.4H219v7.1h-6V157.2z M221.2,167.7c2.2,0,3-1.1,3-3.2
			c0-2.4-0.9-3.2-2.9-3.2H219v6.4H221.2z"/>
		<path class="st8" d="M230.8,174.3c0-3.5,2.4-4.7,6-5.1l3-0.4V168c0-1.7-0.8-2.1-3.2-2.1c-1.6,0-3.2,0.2-4.4,0.5v-3.6
			c1.7-0.7,3.9-1,6.4-1c4.1,0,6.6,1.3,6.6,5.1v11.8h-4.5l-0.4-1.3h-0.2c-0.7,1-2.1,1.6-4.2,1.6C232.9,179,230.8,177.4,230.8,174.3z
			 M239.8,174.9v-3.2l-1.9,0.2c-1.3,0.1-1.9,0.6-1.9,1.9c0,1.4,0.8,1.8,1.8,1.8C238.6,175.5,239.4,175.2,239.8,174.9z"/>
		<path class="st8" d="M247.7,162.2h5.2v2h0.2c0.9-1.3,2.4-2.2,4.1-2.2c0.4,0,0.8,0.1,1,0.2v4.8c-0.3-0.1-0.9-0.2-1.4-0.2
			c-1.5,0-2.7,0.3-3.6,0.7v11.2h-5.4V162.2z"/>
		<path class="st8" d="M261.3,174.2v-8.2h-2v-3.8h2v-3.9h5.5v3.9h3.3v3.8h-3.3v7.4c0,1.1,0.5,1.5,1.8,1.5c0.6,0,1.2-0.1,1.6-0.2v3.5
			c-0.7,0.3-1.9,0.7-3.6,0.7C263.2,178.9,261.3,177.8,261.3,174.2z"/>
		<path class="st8" d="M272.1,162.2h5.2v1.5h0.2c1.4-1.1,3.2-1.8,5.2-1.8c3.1,0,4.9,1.3,4.9,4.5v12.3h-5.4v-10.8
			c0-1.3-0.6-1.8-2.1-1.8c-0.9,0-1.9,0.3-2.6,0.6v12h-5.4V162.2z"/>
		<path class="st8" d="M289.4,170.6v-0.4c0-5.1,3.2-8.3,8.2-8.3c5.5,0,7.6,3.1,7.6,8.5v1.4H295c0.3,2.6,1.8,3.3,4.6,3.3
			c2,0,3.7-0.5,4.9-1v3.4c-1.2,0.7-3.3,1.5-6.3,1.5C292.3,179,289.4,176,289.4,170.6z M294.9,168.7h5c0-2.4-0.8-3.3-2.4-3.3
			C296.3,165.4,295.2,166.2,294.9,168.7z"/>
		<path class="st8" d="M307,162.2h5.2v2h0.2c0.9-1.3,2.4-2.2,4.1-2.2c0.4,0,0.8,0.1,1,0.2v4.8c-0.3-0.1-0.9-0.2-1.4-0.2
			c-1.5,0-2.7,0.3-3.6,0.7v11.2H307V162.2z"/>
	</g>
</g>
</svg>
